# xmcd
#
# Track frame offsets:
#	150
#	21330
#	45610
#	72497
#	83863
#	108589
#	126067
#	139628
#	158526
#	194695
#	219419
#	242662
#
# Disc length: 3404 seconds
#
# Revision: 0
# Processed by: cddbd v1.5.2PL0 Copyright (c) Steve Scherf et al.
# Submitted via: dBpowerAMP V4.0
#
DISCID=a80d4a0c
DTITLE=WYEP 91.3 - Blues From the 'Burgh [CD1 of 2)
DYEAR=1900
DGENRE=Blues
TTITLE0=She's Into Something -- James King and The Usual Suspects
TTITLE1=Rocket Car -- Highway 13
TTITLE2=Don't You Know That I Love You -- Eugene and The Nightcrawlers
TTITLE3=Sugar in my Tea -- James Hilton Band
TTITLE4=Ya Ya -- Mystic Knights
TTITLE5=Stir the Pot -- Blues Orphans
TTITLE6=Don't Cry No More -- Bobby Wayne
TTITLE7=Slow Drag -- Ernie Hawkins
TTITLE8=Tee-Na-Nee-Na-Nu -- The Professionals
TTITLE9=Shame on You -- Gospel Lights
TTITLE10=Who's Been Talkin' -- Black Cat Otis
TTITLE11=Big Boss Man -- Jill Welch and The Blues Burners
EXTD=Compilation of blues songs by various artists from Pittsburgh, PA, USA.
EXTT0=
EXTT1=
EXTT2=
EXTT3=
EXTT4=
EXTT5=
EXTT6=
EXTT7=
EXTT8=
EXTT9=
EXTT10=
EXTT11=
PLAYORDER=
